<svg viewBox="0 0 202 202" width="202" height="202" xmlns="http://www.w3.org/2000/svg"><g transform="translate(1 1)" fill="none" fill-rule="evenodd"><circle stroke="#FFF" stroke-width="2" fill="#E1ECEF" cx="100" cy="100" r="100"/><path d="M128.352 93.077c-.539-2.016-.088-4.447 0-5.962 2.204-1.244 3.75-2.874 6.023-5.961-.23-1.93.42-8.295 0-8.942.94-4.672-.856-7.571 0-8.943 1.07-19.23-5.57-23.27-9.034-23.846-2.523-.4-4.896-.982-6.023-2.98-2.405-1.854-3.506-4.846-9.034-5.962-.329 1.44-2.466.952-3.011 0-2.3-1.41-4.56-2.981-6.023-2.981-1.854 0-3.922 1.514-6.023 2.98-.59.908-2.682 1.433-3.011 0-5.528 1.093-6.629 4.097-9.034 5.962-1.127 1.987-3.512 2.568-6.023 2.981-3.464.565-10.101 4.605-9.034 23.846.844 1.384-.928 4.304 0 8.943-.408.635.23 7.011 0 8.942 2.262 3.075 3.822 4.705 6.023 5.961.088 1.515.55 3.934 0 5.962 2.192 3.887 5.5 10.019 9.034 14.904.612 23.898-39.577 16.693-45.682 44.711C53.387 170.59 74.687 182.5 101.25 182.5c26.588 0 47.9-11.91 63.75-29.808-6.06-28.074-46.152-21.102-45.682-44.711 3.594-5.082 6.878-11.1 9.034-14.904z" fill="#FFF"/></g></svg>